<?xml version="1.0" encoding="iso-8859-1"?>
<!-- Generator: Adobe Illustrator 16.0.0, SVG Export Plug-In . SVG Version: 6.00 Build 0)  -->
<!DOCTYPE svg PUBLIC "-//W3C//DTD SVG 1.1//EN" "http://www.w3.org/Graphics/SVG/1.1/DTD/svg11.dtd">
<svg version="1.1" id="Capa_1" xmlns="http://www.w3.org/2000/svg" xmlns:xlink="http://www.w3.org/1999/xlink" x="0px" y="0px"
	 width="164.236px" height="164.236px" viewBox="0 0 164.236 164.236" style="enable-background:new 0 0 164.236 164.236;"
	 xml:space="preserve" >
<g>
	<path d="M131.595,67.772l0.522,39.571c0.037,3.403-2.688,6.194-6.093,6.248c-3.354-0.306-6.21-2.691-6.248-6.084l-0.428-32.121
		l-33.97,6.955l-30.757,23.327c-0.554,0.415-1.176,0.745-1.835,0.952l-44.721,14.38c-0.635,0.209-1.267,0.308-1.895,0.308
		c-2.605,0-5.027-1.675-5.872-4.28c-1.043-3.25,0.738-6.72,3.978-7.765L48,95.19l31.042-23.535c0.733-0.553,1.59-0.941,2.492-1.13
		l42.659-8.736c1.826-0.357,3.681,0.103,5.104,1.248C130.726,64.203,131.575,65.935,131.595,67.772z M148.548,42.927
		c-8.651,0-15.673,7.009-15.673,15.673c0,8.669,7.021,15.684,15.673,15.684c8.662,0,15.688-7.015,15.688-15.684
		C164.236,49.937,157.21,42.927,148.548,42.927z"/>
</g>
<g>
</g>
<g>
</g>
<g>
</g>
<g>
</g>
<g>
</g>
<g>
</g>
<g>
</g>
<g>
</g>
<g>
</g>
<g>
</g>
<g>
</g>
<g>
</g>
<g>
</g>
<g>
</g>
<g>
</g>
</svg>
