<?xml version="1.0"?>
<svg xmlns="http://www.w3.org/2000/svg" id="outline" viewBox="0 0 512 512" width="512" height="512"><path d="M145.1499,336h73.17139L153.02734,452.07812A8.00073,8.00073,0,0,0,152,456v32a7.99977,7.99977,0,0,0,8,8H344a7.99977,7.99977,0,0,0,8-8V472a7.99919,7.99919,0,0,0-4.03076-6.9458L298.832,436.97559,359.648,327.50684A59.82248,59.82248,0,0,0,310.34131,238.707L187.892,232.58441l17.0885-25.63275L321.04834,176H408a7.99948,7.99948,0,0,0,4.7998-1.6001l32-24A7.99927,7.99927,0,0,0,448,144V128a7.99977,7.99977,0,0,0-8-8H239.97815A39.79044,39.79044,0,0,0,248,96V48a31.99988,31.99988,0,0,0-51.19971-25.6001L171.2002,41.6001A7.99927,7.99927,0,0,0,168,48V96a39.79044,39.79044,0,0,0,8.02185,24H160.7666a40.00815,40.00815,0,0,0-32.88769,17.23145l-49.4502,71.42773A81.15,81.15,0,0,0,145.1499,336Zm93.75586-12.03857A7.99979,7.99979,0,0,0,232,320H180.31012l25.58807-57.57324,70.637,11.77295a32.86829,32.86829,0,0,1,21.10156,51.8584L219.25726,432.93933l-43.17883,10.7948,62.89423-111.81225A7.99944,7.99944,0,0,0,238.90576,323.96143ZM272,480H168V462.24634l54.822-13.70557L272,476.64258Zm64-3.35742V480H288v-8a7.99919,7.99919,0,0,0-4.03076-6.9458l-18.41986-10.52564L286.9256,448.6Zm7.81641-202.4961a43.65724,43.65724,0,0,1,1.84521,45.58985l-63.02789,113.45L245.987,443.35022,235.75244,437.502,310.53906,335.52a48.86814,48.86814,0,0,0-31.37353-77.10254L234.17505,250.919l75.36743,3.76849A44.00111,44.00111,0,0,1,343.81641,274.14648ZM432,140l-26.6665,20H383.99969l12.80011-9.6001A7.99927,7.99927,0,0,0,400,144v-8h32Zm-48-4v4l-26.6665,20H320a8.00964,8.00964,0,0,0-2.06152.27L248,178.92029V136ZM206.3999,35.19971A16.00037,16.00037,0,0,1,232,48v8H208a7.99877,7.99877,0,0,0-5.65674,2.34326L188.686,72H184V52ZM184,96V88h8a7.99877,7.99877,0,0,0,5.65674-2.34326L211.314,72H232V96a24,24,0,0,1-48,0Zm-42.96582,50.33887A24.00427,24.00427,0,0,1,160.7666,136H232V183.187L197.93848,192.27a8.00191,8.00191,0,0,0-4.59473,3.29248L164.5423,238.76465,90.96472,218.69806c.207-.31018.40656-.62421.61926-.93146Zm-57.374,86.95172L165.895,255.71826l.00269-.00989a7.97073,7.97073,0,0,0,.78686.18274l22.912,3.81873L162.801,320H145.1499a65.1755,65.1755,0,0,1-61.48974-86.70941Z"/></svg>
